<svg xmlns="http://www.w3.org/2000/svg" viewBox="0 0 64 64">
  <defs>
    <linearGradient id="g" x1="0" y1="0" x2="0" y2="1">
      <stop offset="0%" stop-color="#f97316"/>
      <stop offset="100%" stop-color="#dc2626"/>
    </linearGradient>
  </defs>
  <!-- Larger centered flame, transparent background -->
  <g transform="translate(6,-2) scale(1.5)">
    <path fill="url(#g)" d="M20 0c2 7-2 9-5 13-3 4-4 7-2 10 2 3 7 3 10 0 1 4-1 7-4 9-6 4-14 0-16-6-3-9 6-16 12-20 2-1 4-3 5-6z"/>
    <path fill="#fde68a" d="M18 23c1 3-1 6-4 7-4 3-9 0-10-4-2-6 4-10 8-12-1 3-1 5 1 7 1 1 3 2 5 2z"/>
  </g>
</svg>

